<?xml version="1.0" encoding="utf-8"?>
<!-- Generator: Adobe Illustrator 19.1.0, SVG Export Plug-In . SVG Version: 6.00 Build 0)  -->
<svg version="1.1" id="Layer_1" xmlns="http://www.w3.org/2000/svg" xmlns:xlink="http://www.w3.org/1999/xlink" x="0px" y="0px"
	 viewBox="0 0 192 192" style="enable-background:new 0 0 192 192;" xml:space="preserve">
<style type="text/css">
	.st0{fill:#B5DCF7;}
</style>
<g>
	<circle class="st0" cx="96.1" cy="96" r="96"/>
</g>
<g>
	<path d="M30.1,111.1c1.5-3.2,3.3-6.3,5.2-9.2c5-7.6,11.2-14.2,18.3-20c5.4-4.4,11.1-8.2,17.2-11.5c4.5-2.4,9.1-4.6,13.9-6.3
		c0.1,0,0.3-0.2,0.3-0.4c0.8-1.9,1.8-3.6,3-5.2c2.6-3.5,5.9-6.4,9.5-8.9c5.2-3.6,10.9-6.3,16.9-8.4c1-0.4,2-0.7,3-1
		c0.1,0.2,0.1,0.3,0.2,0.5c0.6,2,1,4,1.1,6c0.2,2.6,0.3,5.2,0.1,7.9c0,0.5-0.1,1-0.1,1.6c4.2-2.6,8.7-4.2,13.4-5.5
		c0,0.2,0,0.3,0,0.4c-0.1,2-0.4,4-0.9,5.9c-1.1,4.6-2.7,8.9-4.5,13.2c-0.4,1-0.8,1.9-1.3,2.9c6.3,5.4,12.1,11.4,17.5,17.6
		c-0.7,0.3-1.4,0.6-2,1c-1,0.6-1.6,1.4-1.6,2.6c0,0.4,0.1,0.7,0.4,0.9c7.3,4.8,14.7,9.7,22,14.5c0.3,0.2,0.4,0.3,0.2,0.7
		c-1.4,3.7-3.6,6.7-6.5,9.2c-3.9,3.5-8.4,5.9-13.3,7.7c-1,0.4-1.9,0.5-2.9,0.2c-3.9-0.9-7.8-1.7-11.8-2.6c-2.7-0.6-5.3-0.6-8,0
		c-3.7,0.9-6.7,3-9.3,5.7c-0.1,0.1-0.1,0.2-0.1,0.3c0.1,1.5-0.1,2.9-0.5,4.4c-0.8,2.9-2.2,5.5-4,8c-2.2,3-4.8,5.7-7.5,8.2
		c0,0-0.1,0.1-0.2,0.1c-0.3-9.1-3.8-16.7-10.7-22.6c1.3,3.2,2.2,6.6,1.8,10.2c-0.1-0.1-0.2-0.2-0.2-0.2c-2.2-3-4.7-5.8-7.4-8.4
		c-6-5.7-12.8-10.4-20.4-13.8c-4.7-2.1-9.6-3.6-14.7-4.6c-2.6-0.5-5.2-0.8-7.9-0.9c-2.3-0.1-4.6-0.1-6.9-0.1c-0.5,0-1.1,0-1.6,0
		C30,111.3,30,111.2,30.1,111.1z M110.4,121.9c0.7-0.1,1.4-0.2,2.1-0.2c1.8-0.1,3.6-0.2,5.5-0.2c4.5,0,8.9,0.5,13.3,1.5
		c2.9,0.6,5.8,1.4,8.6,2.4c0.4,0.1,0.7,0.1,1.1,0c4.3-1.5,8.3-3.6,11.9-6.5c0.6-0.5,1.2-1,1.7-1.5c0,0,0.1-0.1,0.1-0.1
		c-0.8-1-1.5-2.1-1.9-3.3c-0.6-1.9-0.7-3.9-0.5-5.9c0-0.5,0.1-0.9,0.2-1.4c0.1-0.2,0-0.4-0.2-0.5c-2.1-1.2-4.2-2.5-6.2-3.8
		c-3.5-2.1-7-4.2-10.5-6.3c-0.2-0.1-0.3-0.2-0.4-0.4c-1.9-3.2-4.2-6.1-7.3-8.2c-3.1-2.2-6.5-3.4-10.2-3.8c-2.4-0.3-4.7-0.2-7,0.3
		c-0.1,0-0.3,0.1-0.4,0.1c0,0,0,0-0.1,0.1c1.6,0.5,3.1,0.9,4.7,1.4c0,0,0,0,0,0.1c-0.7,0-1.4,0.1-2.1,0.1c-3.8,0.3-7.5,0.9-11,2.6
		c-1.9,0.9-3.6,2.1-4.9,3.8c-1.6,2-2.4,4.3-2.5,6.9c-0.1,2.9,0.5,5.6,1.4,8.3c0.3,0.9,0.6,1.7,1,2.6c0.2-1.9,0.6-3.5,1.1-4
		c0.2,0.4,0.4,0.8,0.6,1.2c1.2,2.4,2.8,4.6,4.3,6.8c2.4,3.4,4.4,6.9,5.9,10.7c0.4,1.1,0.7,2.2,1,3.3c0,0.1,0.1,0.2,0.1,0.4
		c2.1-1.9,4.4-3.5,7.1-4.5C114.7,122.7,112.5,122.3,110.4,121.9z M78,72.9c-4.8,2-9.2,4.6-13.4,7.5c-4.2,2.9-8.1,6.2-11.8,9.7
		c-5.1,4.9-9.6,10.3-13.7,16.1c0,0.1-0.1,0.1-0.2,0.3c0.3,0,0.6-0.1,0.9-0.1c5.6-0.5,11,0.4,16.2,2.1c4.6,1.5,8.9,3.6,12.9,6.1
		c0.1,0.1,0.2,0.1,0.3,0.2c0,0,0,0,0.1,0c-0.4-0.5-0.8-0.9-1.1-1.3c-2-2.6-3.3-5.5-3.8-8.7c-0.5-3.4,0.1-6.7,1.4-9.8
		c0.3-0.7,0.7-1.4,1-2.1c0-0.1,0.1-0.2,0.2-0.3c-3.2,1.2-5.8,3-7.9,5.6c0,0-0.1,0-0.1,0c0-0.4,0-0.8,0.1-1.2c0.4-3,1.5-5.7,3-8.2
		c2.3-3.8,5.3-7,8.7-9.9c2.7-2.3,5.6-4.3,8.6-6.1c0.1-0.1,0.2-0.1,0.3-0.2c0,0,0,0,0-0.1C79.1,72.4,78.6,72.6,78,72.9z M101.5,70.4
		c0.3-2.2,1.7-3.7,3.3-5.1c-0.3,0.9-0.4,1.8-0.3,2.7c0.1,0.9,0.3,1.8,0.5,2.8c0.8-0.2,1.6-0.3,2.3-0.4c0.9-0.2,1.8-0.5,2.7-0.7
		c0.3-0.1,0.4-0.2,0.6-0.5c1.2-2.1,2.1-4.4,2.7-6.7c1.1-3.7,1.6-7.5,1.7-11.4c0-1.8-0.1-3.6-0.1-5.4c0,0,0-0.1,0-0.2
		c-0.6,0.3-1.2,0.5-1.8,0.8c-3.9,1.8-7.5,4.1-10.7,6.9c-2.4,2.1-4.4,4.5-5.7,7.3c-1.1,2.4-1.6,4.8-1.3,7.5c0,0.5,0.1,1,0.3,1.5
		c1.4-5.4,4.7-9.4,8.9-12.9C101.6,60.9,100.7,65.5,101.5,70.4z"/>
	<path d="M123.8,96.6c-1.1-0.9-2.5-1.5-3.9-2c-3.4-1.1-6.9-1.5-10.5-1.6c-0.6,0-1.1,0-1.7-0.1c0,0,0-0.1,0-0.1
		c0.6-0.4,1.2-0.8,1.8-1.1c4.1-2.4,8.6-3.3,13.3-3.4c0.1,0,0.3,0.1,0.4,0.2c3,2.3,5.9,4.5,8.8,6.8c0.2,0.1,0.3,0.3,0.5,0.4
		c0,0,0,0,0,0.1c-2.5-0.9-5-1.8-7.5-2.7c0.1,1.4-0.2,2.7-1.1,3.7C123.8,96.6,123.8,96.6,123.8,96.6z M119.9,90.5
		c-0.2-0.2-0.4-0.2-0.6-0.1c-1.4,0.3-2.9,0.6-4.3,1c-0.5,0.1-0.9,0.3-1.4,0.4c2.4-0.1,4.7,0.2,6.9,1.1
		C120.5,92,120.3,91.2,119.9,90.5z M122.2,93.8c0.5-0.7,0.6-2.1,0.2-2.8c-0.1,0.4-0.2,0.8-0.4,1.2c-0.2,0.4-0.5,0.7-0.7,1.1
		C121.6,93.4,121.9,93.6,122.2,93.8z"/>
</g>
</svg>
