<?xml version="1.0" encoding="utf-8"?>
<!-- Generator: Adobe Illustrator 19.1.0, SVG Export Plug-In . SVG Version: 6.00 Build 0)  -->
<svg version="1.1" id="Layer_1" xmlns="http://www.w3.org/2000/svg" xmlns:xlink="http://www.w3.org/1999/xlink" x="0px" y="0px"
	 viewBox="-255 334 100 125" style="enable-background:new -255 334 100 125;" xml:space="preserve">
<style type="text/css">
	.st0{fill:#0F71B7;}
</style>
<path d="M-641.2,871.2l-36.7,0.1l12.5-12.5c2.8-2.8,2.8-2.8,0-5.5s-2.8-2.7-5.5,0l-17.8,17.8c-0.3,0.4-0.7,0.8-1.2,1.3
	c-2.7,2.6-2.7,2.7,0,5.4c0.5,0.5,0.9,1,1.3,1.3l17.8,17.7c2.6,2.7,2.6,2.7,5.3,0c2.8-2.6,2.8-2.6,0-5.4l-12.4-12.5l36.7-0.1
	c3.8,0,3.8,0,3.8-3.8S-637.4,871.2-641.2,871.2z M-718.8,894.2c-5.8-9.6-5.8-28.8,0-38.5c0,0,7.7,0,9.6-3.8l9.6-17.3L-713,825
	c-28.8,25-28.8,75,0,100l13.5-9.6l-9.6-17.3C-711.1,894.2-718.8,894.2-718.8,894.2z"/>
<path class="st0" d="M-158.8,392.2l-36.7,0.1l12.5-12.5c2.8-2.8,2.8-2.8,0-5.5s-2.8-2.7-5.5,0l-17.8,17.8c-0.3,0.4-0.7,0.8-1.2,1.3
	c-2.7,2.6-2.7,2.7,0,5.4c0.5,0.5,0.9,1,1.3,1.3l17.8,17.7c2.6,2.7,2.6,2.7,5.3,0c2.8-2.6,2.8-2.6,0-5.4l-12.4-12.5l36.7-0.1
	c3.8,0,3.8,0,3.8-3.8S-155,392.2-158.8,392.2z M-236.4,415.2c-5.8-9.6-5.8-28.8,0-38.5c0,0,7.7,0,9.6-3.8l9.6-17.3l-13.4-9.6
	c-28.8,25-28.8,75,0,100l13.5-9.6l-9.6-17.3C-228.7,415.2-236.4,415.2-236.4,415.2z"/>
</svg>
