<?xml version="1.0" encoding="utf-8"?>
<!-- Generator: Adobe Illustrator 19.1.0, SVG Export Plug-In . SVG Version: 6.00 Build 0)  -->
<svg version="1.1" id="Layer_1" xmlns="http://www.w3.org/2000/svg" xmlns:xlink="http://www.w3.org/1999/xlink" x="0px" y="0px"
	 viewBox="0 0 60 60" style="enable-background:new 0 0 60 60;" xml:space="preserve">
<style type="text/css">
	.st_open0{display:none;fill:none;stroke:#000000;stroke-width:2;stroke-linecap:round;stroke-linejoin:round;stroke-miterlimit:10;}
	.st_open1{fill:#19191A;}
</style>
<polyline class="st_open0" points="30,25 30,31 32,33 "/>
<path class="st_open1" d="M30,22c-4.4,0-8,3.6-8,8c0,4.4,3.6,8,8,8s8-3.6,8-8C38,25.6,34.4,22,30,22z M32.7,33.7C32.5,33.9,32.3,34,32,34
	s-0.5-0.1-0.7-0.3l-2-2C29.1,31.5,29,31.3,29,31v-5c0-0.6,0.4-1,1-1s1,0.4,1,1v4.6l1.7,1.7C33.1,32.7,33.1,33.3,32.7,33.7z"/>
</svg>
