<?xml version="1.0" encoding="utf-8"?>
<!-- Generator: Adobe Illustrator 19.1.0, SVG Export Plug-In . SVG Version: 6.00 Build 0)  -->
<svg version="1.1" id="Icons" xmlns="http://www.w3.org/2000/svg" xmlns:xlink="http://www.w3.org/1999/xlink" x="0px" y="0px"
	 viewBox="0 0 17.8 18" style="enable-background:new 0 0 17.8 18;" xml:space="preserve">
<style type="text/css">
	.st0{fill:#A3A3A3;}
</style>
<g>
	<path class="st0" d="M8.8,2.5c3.6,0,6.5,2.9,6.5,6.5s-2.9,6.5-6.5,6.5S2.2,12.6,2.2,9S5.1,2.5,8.8,2.5 M8.8,1.5
		C4.6,1.5,1.2,4.9,1.2,9s3.4,7.5,7.5,7.5s7.5-3.4,7.5-7.5S12.9,1.5,8.8,1.5L8.8,1.5z"/>
	<g>
		<path class="st0" d="M10.1,11.9l-0.1,0.4c-0.3,0.1-0.6,0.2-0.7,0.3c-0.2,0.1-0.4,0.1-0.6,0.1c-0.4,0-0.7-0.1-0.9-0.3
			S7.4,12,7.4,11.7c0-0.1,0-0.2,0-0.3s0-0.2,0.1-0.4l0.4-1.4c0-0.1,0.1-0.3,0.1-0.4c0-0.1,0-0.2,0-0.3c0-0.2,0-0.3-0.1-0.4
			S7.8,8.4,7.6,8.4c-0.1,0-0.2,0-0.3,0S7.1,8.5,6.9,8.5l0.1-0.4C7.4,8,7.6,7.9,7.8,7.8s0.4-0.1,0.7-0.1c0.4,0,0.7,0.1,0.9,0.3
			s0.3,0.4,0.3,0.7c0,0.1,0,0.2,0,0.3s0,0.3-0.1,0.4l-0.4,1.4C9.1,10.9,9,11,9,11.2c0,0.1,0,0.2,0,0.3c0,0.2,0,0.3,0.1,0.4
			C9.2,12,9.3,12,9.5,12c0.1,0,0.2,0,0.3,0C9.9,11.9,9.9,11.9,10.1,11.9z M10.1,6.2c0,0.2-0.1,0.4-0.3,0.6C9.6,7,9.4,7,9.2,7
			S8.7,6.9,8.6,6.8C8.4,6.6,8.3,6.4,8.3,6.2s0.1-0.4,0.3-0.6C8.8,5.4,9,5.3,9.2,5.3s0.5,0.1,0.6,0.3C10.1,5.8,10.1,6,10.1,6.2z"/>
	</g>
</g>
</svg>
