<?xml version="1.0" encoding="utf-8"?>
<!-- Generator: Adobe Illustrator 19.1.0, SVG Export Plug-In . SVG Version: 6.00 Build 0)  -->
<svg version="1.1" id="Layer_1" xmlns="http://www.w3.org/2000/svg" xmlns:xlink="http://www.w3.org/1999/xlink" x="0px" y="0px"
	 viewBox="0 0 369 367" style="enable-background:new 0 0 369 367;" xml:space="preserve">
<style type="text/css">
	.st0{fill:#FFFFFF;}
</style>
<path class="st0" d="M10,10h166.5c0,55.5,0,111,0,166.5c-55.5,0-111,0-166.5,0V10L10,10z"/>
<path class="st0" d="M193.5,10H360c0,55.5,0,111,0,166.5c-55.5,0-111,0-166.5,0C193.5,121,193.5,65.5,193.5,10L193.5,10z"/>
<path class="st0" d="M10,193.5c55.5,0,111,0,166.5,0c0,55.5,0,111,0,166.5H10V193.5L10,193.5z"/>
<path class="st0" d="M193.5,193.5c55.5,0,111,0,166.5,0c0,55.5,0,111,0,166.5H193.5C193.5,304.5,193.5,249,193.5,193.5L193.5,193.5z
	"/>
</svg>
