<?xml version="1.0" encoding="utf-8"?>
<!-- Generator: Adobe Illustrator 19.1.0, SVG Export Plug-In . SVG Version: 6.00 Build 0)  -->
<svg version="1.1" id="Layer_1" xmlns="http://www.w3.org/2000/svg" xmlns:xlink="http://www.w3.org/1999/xlink" x="0px" y="0px"
	 viewBox="0 0 364.8 372.3" style="enable-background:new 0 0 364.8 372.3;" xml:space="preserve">
<style type="text/css">
	.st0{fill-rule:evenodd;clip-rule:evenodd;fill:#FFFFFF;}
</style>
<path class="st0" d="M362.1,154.9c-0.5-3.6-2.4-3.9-5.4-3.8c-55.3,0.1-110.6,0.1-165.9-0.1c-4.4,0-5.1,1.5-5.1,5.4
	c0.2,20.3,0.1,40.7,0.1,61c0,6.6,0,6.6,6.4,6.6c30,0,60,0.1,90-0.1c5,0,5.4,1.5,4.2,5.6c-1.8,5.9-3.6,11.7-6.3,17.3
	c-6.7,14-16.9,25-29.1,34.3c-15.4,9.4-31.8,15.5-49.9,17.4c-38.9,4-71.3-8.4-97.5-37.4c-10.3-11.4-17.2-24.8-22.8-38.9
	c-7.3-24.3-7.7-48.6,0.5-72.8c6.6-18.1,16.7-33.9,30.9-47.1c41.3-38.4,104.8-38.8,143.7-3.2c2.8,2.6,3.9,0.6,5.5-0.9
	c15.4-15.4,30.8-30.9,46.4-46.2c3-3,2.3-4.4-0.4-6.8C263,7.1,211.9-6.4,154.7,2.7C113.9,9.3,79.4,28.4,51,58.2
	C38.4,71.4,27.7,86,20.1,102.7c19.4,14.9,38.8,29.9,58.2,44.8c-19.4-14.9-38.8-29.9-58.2-44.8c-0.9,1.7-2,3.4-2.8,5.2
	C2.1,140.7-3,175,1.6,210.6c2.7,20.6,8.4,40.4,18.3,58.7c11.7,24.3,28.2,44.8,49.3,61.4c50.9,40.2,108.3,50.1,170.5,34.4
	c26.4-6.7,49.8-19.2,69.7-38.1c11.7-9.9,21-21.9,28.7-34.9C363.5,249.5,369,203.3,362.1,154.9z"/>
</svg>
