<?xml version="1.0" encoding="utf-8"?>
<!-- Generator: Adobe Illustrator 19.1.0, SVG Export Plug-In . SVG Version: 6.00 Build 0)  -->
<svg version="1.1" id="Layer_1" xmlns="http://www.w3.org/2000/svg" xmlns:xlink="http://www.w3.org/1999/xlink" x="0px" y="0px"
	 viewBox="-296 364.7 45 43" style="enable-background:new -296 364.7 45 43;" xml:space="preserve">
<style type="text/css">
	.st0{display:none;}
	.st1{display:inline;}
	.st2{display:none;fill:none;stroke:#0F71B7;stroke-width:2;stroke-linecap:round;stroke-miterlimit:10;}
	.st3{display:none;fill:#0F71B7;}
	.st4{fill:none;stroke:#0F71B7;stroke-width:2;stroke-miterlimit:10;}
	.st5{fill:#0F71B7;}
	.st6{fill:none;stroke:#0F71B7;stroke-width:2;stroke-linecap:round;stroke-miterlimit:10;}
</style>
<g class="st0">
	<g class="st1">
		<path d="M-257.8,408.3l-7.6-2.7c-2.4,1.5-5.1,2.2-7.8,2.2c-8.3,0-15-6.7-15-15s6.7-15,15-15c8.3,0,15,6.7,15,15
			c0,2.8-0.8,5.5-2.2,7.8L-257.8,408.3z M-273.2,379.2c-7.5,0-13.6,6.1-13.6,13.6s6.1,13.5,13.5,13.5c2.6,0,5.1-0.8,7.3-2.2l0.3-0.2
			l5.4,1.9l-1.9-5.4l0.2-0.3c1.4-2.2,2.2-4.7,2.2-7.3C-259.7,385.3-265.8,379.2-273.2,379.2z"/>
	</g>
</g>
<line class="st2" x1="-283" y1="387" x2="-267" y2="387"/>
<line class="st2" x1="-283" y1="383" x2="-271" y2="383"/>
<path class="st3" d="M-259,377h-28c-1.1,0-2,0.9-2,2v20c0,1.1,0.9,2,2,2h28c1.1,0,2-0.9,2-2v-20C-257,377.9-257.9,377-259,377z
	 M-283,382h12c0.6,0,1,0.4,1,1c0,0.6-0.4,1-1,1h-12c-0.6,0-1-0.4-1-1C-284,382.4-283.6,382-283,382z M-280,395c0,0.6-0.4,1-1,1h-2
	c-0.6,0-1-0.4-1-1v-2c0-0.6,0.4-1,1-1h2c0.6,0,1,0.4,1,1V395z M-267,388h-16c-0.6,0-1-0.4-1-1c0-0.6,0.4-1,1-1h16c0.6,0,1,0.4,1,1
	C-266,387.6-266.4,388-267,388z"/>
<path class="st4" d="M-257,377h-32c-1.1,0-2,0.9-2,2v20c0,1.1,0.9,2,2,2h32c1.1,0,2-0.9,2-2v-20C-255,377.9-255.9,377-257,377z"/>
<path class="st5" d="M-283,382h12c0.6,0,1,0.4,1,1c0,0.6-0.4,1-1,1h-12c-0.6,0-1-0.4-1-1C-284,382.4-283.6,382-283,382z M-280,395
	c0,0.6-0.4,1-1,1h-2c-0.6,0-1-0.4-1-1v-2c0-0.6,0.4-1,1-1h2c0.6,0,1,0.4,1,1V395z M-267,388h-16c-0.6,0-1-0.4-1-1c0-0.6,0.4-1,1-1
	h16c0.6,0,1,0.4,1,1C-266,387.6-266.4,388-267,388z"/>
<path class="st6" d="M-259,375v-1c0-0.6-0.4-1-1-1h-26c-0.6,0-1,0.4-1,1v1"/>
<path class="st6" d="M-284,371v-1c0-0.6,0.4-1,1-1h20c0.6,0,1,0.4,1,1v1"/>
</svg>
